<svg xmlns="http://www.w3.org/2000/svg" width="606" height="252" viewBox="0 0 606 252">
  <path id="Think_big._Think_ino" data-name="Think big. Think ino" d="M444.857,252a3.258,3.258,0,0,1-2.532-1.565c-1.168-1.615-1.568-4.009-1.188-7.118a37.022,37.022,0,0,1,3.225-10.429c1.163-2.837,4.692-11.28,9.209-21.856-7.3,4.079-18.215,9.614-20.85,10.577a7.276,7.276,0,0,1-2.445.392c-1.816,0-4.181-.6-5.371-2.282a4.771,4.771,0,0,1-.319-4.531,53.946,53.946,0,0,1-9.1,3.928l-.007,0-.01,0-.007,0-.021.007-.028.01-.006,0-.056.02c-.808.287-1.473.524-2.066.755a3.634,3.634,0,0,1-1.2.172,8.375,8.375,0,0,1-3.221-.732,8.666,8.666,0,0,1-3.145-2.288,7.641,7.641,0,0,1-1.588-6.388,12.022,12.022,0,0,1,2.74-5.526,31.217,31.217,0,0,1,5.2-4.978c3.751-2.913,7.929-5.137,9.8-5.6a21.047,21.047,0,0,1,4.8-.575c2.469,0,5.855.491,7.964,2.828a.983.983,0,0,1,.158,1.121,1.759,1.759,0,0,1-1.584,1.063,1.847,1.847,0,0,1-.383-.044c-.677,0-4.669,2.072-8.362,4.491-2.743,1.8-7.344,5.115-7.344,7.111a71.113,71.113,0,0,0,7.654-3.179l.037-.016.006,0,.032-.014.01,0,.007,0,.045-.02.036-.016.018-.008c4.777-2.122,10.191-4.527,11.144-4.527a.29.29,0,0,1,.106.018,4.172,4.172,0,0,1,1.723,2.886,2.727,2.727,0,0,1-.706,2.182c-1.072,1.268-3.067,3.628-2.867,4.057a.139.139,0,0,0,.14.07,3.027,3.027,0,0,0,1.145-.523c2.081-1.382,14.4-5.971,21.358-8.465-.935,2.166-2.03,4.715-3.445,8.025,1.865-1.042,3.366-1.917,4.46-2.6a25.348,25.348,0,0,0,5.179-4.253c1.272-1.4,1.932-2.577,1.766-3.155-.074-.256-.3-.385-.685-.385a3.883,3.883,0,0,0-1.175.246c-1.154.374-3.434,1.168-6.1,2.124l.256-.6.515-1.187.108-.251.574-1.324.037-.086.155-.356.071-.165a43.782,43.782,0,0,1-5.431.566c-.088.007-.155.01-.215.01-1.925,0-3.216-2.3-3.64-4.586-.377-2.032-.11-4.478,1.366-5.046a6.408,6.408,0,0,1,3.118-.8l.228,0h.22l.261,0c.53,0,1.282-.013,2.4-.111.534,0,1.486-.036,3.262-.106l.123,0,.109,0,.04,0,.105,0,.383-.015,2.315-.089c2.942-6.308,6.116-12.419,8.939-17.207,4.976-8.12,8.3-13.193,10.767-16.451,2.688-3.543,4.575-5.193,5.937-5.193a1.6,1.6,0,0,1,.268.022,19.745,19.745,0,0,1,5.289,2.576c1.954,1.272,3.265,2.453,3.423,3.084.067.795-.361,1.079-.9,1.439l0,0a3.517,3.517,0,0,0-1.13,1.048c-.509.723-1.139,1.545-1.936,2.584l-.007.009-.021.027-.032.041,0,.005-.012.015-.039.05-.056.073-.005.007,0,.006a201.341,201.341,0,0,0-17.684,27.067c1.191-.123,2.345-.216,3.364-.3h.025l.177-.014.1-.008h.012l.076-.006.063,0h.005l.045,0,.05,0,.057,0,.026,0c1.68-.133,3.129-.248,4.368-.445a54.08,54.08,0,0,1,6.026-.494c-.634-2.024-.933-4.534.307-4.942a53.112,53.112,0,0,1,6.763-1.809,1.441,1.441,0,0,1,.249-.022c1.256,0,2.31,1.629,3.329,3.2a16.679,16.679,0,0,0,1.35,1.906,1.526,1.526,0,0,1,.437,1.165c-.1.664-.865,1.194-1.755,1.808l-.013.009c-.324.222-.768.525-1.191.864A10.578,10.578,0,0,1,494.377,191a2.582,2.582,0,0,1-2.6-1.366l-.008-.015-.009-.014-.012-.021-.012-.021-.013-.023-.016-.03a6.991,6.991,0,0,0,1.2-1.789.483.483,0,0,0-.026-.47c-.222-.321-.976-.477-2.3-.477h-.017a15.141,15.141,0,0,0,1.153,2.736,16.492,16.492,0,0,1-1.888,1.889,17.711,17.711,0,0,1-8.684,4.019c-.74.128-1.535.253-2.5.4l-.065.01-.006,0-.043.006-.186.029h-.015l-.029,0h-.009l-.01,0h-.008l-.048.007-.014,0c-2.129.329-4.537.7-7.027,1.23-.467.9-.942,1.769-1.428,2.66l0,.007-.041.076-.005.01-.036.066,0,.006-.022.041-.025.047c-.836,1.53-1.781,3.26-2.732,5.236-13.563,26.847-16.259,36.231-17.555,40.74l-.006.023-.007.026-.03.1,0,.008-.009.032c-.187.644-.334,1.153-.493,1.631a8.378,8.378,0,0,1-1.663,3A3.135,3.135,0,0,1,444.857,252Zm-433.2-15h0a4.018,4.018,0,0,1-.52-.025,3.849,3.849,0,0,1-2.851-1.769,9.736,9.736,0,0,1-1.666-4.976,23.061,23.061,0,0,1,1.143-8.542c3.5-10.466,23.6-50.177,28.68-59.907,1.313-2.44,2.707-5.211,4.387-8.72A310.039,310.039,0,0,0,5.4,158.722a1.359,1.359,0,0,1-1.3.975,3.754,3.754,0,0,1-2.544-1.528,6.528,6.528,0,0,1-1.541-3.532,4.784,4.784,0,0,1,1.434-3.892c1.3-1.317,3.426-2.253,6.309-2.78,9.02-1.772,24.335-3,38.128-3.964,1.736-2.679,3.171-4.2,4.387-4.643a1.679,1.679,0,0,1,.485-.067c1.557,0,4.337,1.711,5.588,3.917,2.9-.22,5.183-.442,6.973-.679,9.447-.906,10.246-1.71,11.7-3.17A1.717,1.717,0,0,1,76.083,139a2.672,2.672,0,0,1,2.03,1.11c.526.676,1.305,2.212.619,4.909a7.535,7.535,0,0,1-1.645,3.1,7.8,7.8,0,0,1-3.164,1.984c-2.631.954-6.517,1.418-13.412,1.6-1.9,0-3.776.085-5.943.182h-.011l-.088,0-.4.018h-.028l-.251.011H53.78l-.124.006h-.015l-.081,0h-.021l-.7,1.192-.008.014,0,.006-.012.02-.006.011-.012.02-.014.025,0,.005,0,0,0,0-.007.013-.011.019c-6.329,10.819-18.109,30.956-26.438,48.267-9.8,20.524-10.451,27.456-10.7,30.066v.024l-.005.057,0,.037,0,.031,0,.027,0,.029,0,.02c-.016.163-.042.432-.079.626a5.786,5.786,0,0,1-.75,2.883A3.416,3.416,0,0,1,11.659,237Zm22.191-2c-.069,0-.159,0-.291-.015-1.29-.13-2.268-1.5-2.861-2.625a15.918,15.918,0,0,1-1.6-5.409,8.494,8.494,0,0,1,.521-4.78c.679-1.238,3.834-7.4,6.137-11.908l.005-.011.243-.475.049-.095.008-.017.281-.548.113-.221.008-.017.016-.031.013-.024.095-.185.14-.272.1-.2.014-.029.075-.146.059-.117,0,0,0-.007.042-.083.028-.054.067-.132,0-.007.105-.206.049-.1,0-.009.013-.024.01-.02.071-.139.047-.092.016-.03c5.652-11.053,13.393-26.19,16.488-31.858a181.817,181.817,0,0,0,9.791-20.3A2.6,2.6,0,0,1,66.245,153a8.35,8.35,0,0,1,3.891,1.36,5.541,5.541,0,0,1,2.481,3.194,1.99,1.99,0,0,1-.118,1.568c-.448.648-6.219,10.763-12.52,22.666-5.759,10.873-13.28,25.741-16.4,34.827a60.111,60.111,0,0,1,7.294-7.141,92.216,92.216,0,0,1,8.693-6.458,66.382,66.382,0,0,1,8.259-4.678,16.465,16.465,0,0,1,5.994-1.8c.1,0,.187,0,.258.008,2.457.158,4.253,1.055,5.192,2.593,1.145,1.876.984,4.626-.465,7.953-2.115,4.5-3.216,7.3-2.588,8.291a.989.989,0,0,0,.914.407,4.113,4.113,0,0,0,1.111-.193c3.249-.9,11.984-6.164,15.755-8.732a2.752,2.752,0,0,1,1.358-.526.567.567,0,0,1,.58.374c.479,1.225-1.619,5.578-6.665,10.245l-.761.694,0,0-.013.013a76.833,76.833,0,0,1-8.18,6.851,13.542,13.542,0,0,1-7.652,2.754,9.709,9.709,0,0,1-1.507-.111,5.808,5.808,0,0,1-4.426-3.525,13.74,13.74,0,0,1-1.036-6.95A17.951,17.951,0,0,1,68,209.244a1.077,1.077,0,0,0-.607-.144c-1.37,0-4.294,1.381-7.632,3.6a61.283,61.283,0,0,0-10.669,9.126l-.513.555C41.565,229.982,36.932,235,33.85,235Zm142.861-2c-.051,0-.112,0-.2-.013a3.2,3.2,0,0,1-2.281-1.98,12.48,12.48,0,0,1-1.213-4.981,9.382,9.382,0,0,1,.789-4.713c.337-.593,1.122-2.157,2.4-4.779a32.319,32.319,0,0,1-2.328,2.291l-.231.211-.051.047-.061.056-.119.108-.087.079-.019.017-.208.19-.049.044-.007.007-.007.006-.009.008-.007.006-.009.008-.011.01-.009.008-.008.007a68.329,68.329,0,0,1-7.222,6.04,12.138,12.138,0,0,1-6.836,2.461,9.794,9.794,0,0,1-1.46-.117c-1.264-.2-2.317-1.193-3.13-2.947-2.4-5.194-2-15.919.77-20.492a.38.38,0,0,0-.192-.047c-1.393,0-6.014,5.448-10.905,11.215l-.011.012-.044.051,0,0-.013.015-.029.034-.006.007-.052.061-.078.093-.006.007,0,0c-1.8,2.121-4.261,5.026-6.3,7.272a42.847,42.847,0,0,1-6.941,6.22,7.622,7.622,0,0,1-4.369,1.47,8.816,8.816,0,0,1-1.056-.064c-.947-.113-1.92-1.132-2.739-2.869-1.272-2.7-1.919-6.742-.746-8.57.438-.737.883-1.393,1.177-1.827l.012-.018.008-.012.008-.012.014-.021.013-.018.008-.013.026-.038.017-.025.013-.019.008-.012.014-.02.008-.013c.421-.625.855-1.27,1.349-2.112-2.777,2.128-5.837,4.4-8.616,6.4-4.342,3.121-12,8.445-14.473,9.033a5.815,5.815,0,0,1-1.589.229,5.962,5.962,0,0,1-4.4-2.035,9.539,9.539,0,0,1-2.156-7.4,46.68,46.68,0,0,1,3.424-11.846c1.8-4.4,3.824-8.225,5.291-9.971C104.819,196,105.606,196,106.518,196c1.273,0,3.24,1.672,4.53,3.225,1.2,1.443,1.832,2.743,1.695,3.479-.1,1.536-.652,1.843-2.139,2.666l-.012.006-.025.014-.009,0-.072.04-.1.058-.083.046-.105.059-.07.039-.065.037-.005,0-.094.053-.011.005-.017.01-.245.141c-.808.62-2.675,3.611-4.342,6.956-1.9,3.822-2.85,6.666-2.53,7.608a.48.48,0,0,0,.487.364,1.154,1.154,0,0,0,.273-.041c3.14-.869,19.4-9.945,24.1-12.764a53.03,53.03,0,0,1-3.388,7.331c2.5-1.917,4.478-3.5,5.432-4.34,1.665-1.52,2.535-3.032,2.218-3.851a.915.915,0,0,0-.952-.522,5.491,5.491,0,0,0-2.624.964c-.156.1-.33.2-.645.393l-.018.011-.024.014c.128-.322.257-.654.457-1.183,1.57-3.99,3.127-8.071,4.157-10.771l.005-.014.043-.112.035-.092.007-.02.085-.221,0-.007.034-.089,0-.005.059-.152,0-.006.038-.1,0-.005.085-.225,0-.013.1-.26,0-.008.005-.013.039-.1.041-.107.069-.181.078-.206.006-.015,0-.007,0-.012.055-.144.005-.014.065-.169,0-.011.006-.016.032-.083.039-.1,0-.005c.8-2.1,1.562-4.09,1.853-4.766A3.722,3.722,0,0,1,138.625,187a9.082,9.082,0,0,1,4.232,1.208,4.8,4.8,0,0,1,2.287,2.813,1.936,1.936,0,0,1-.151,1.56c-.013.017-.027.036-.043.056l-.011.014-.037.049-.038.049-.005.008c-4.214,5.446-7.877,14.62-10.208,21.358a126.012,126.012,0,0,0,11.5-10.135l.039-.038.006-.006c5.838-5.554,11.352-10.8,14.258-10.8.059,0,.113,0,.162.005,2.272.158,3.917.987,4.757,2.4,1,1.676.834,4.105-.486,7.024a33.989,33.989,0,0,0-2.408,8.44c-.458,3.037-.369,5.32.243,6.263a.941.941,0,0,0,.806.492,1.262,1.262,0,0,0,.347-.056c3.023-.927,10.961-5.61,14.277-7.851a2.638,2.638,0,0,1,1.215-.433.726.726,0,0,1,.267.046c-1.52,3.15-2.481,5.131-3.426,7.069a23.3,23.3,0,0,0,2.547-3.28c.975-1.556,1.417-2.853,1.182-3.469a.525.525,0,0,0-.3-.32l.158-.326.155-.321.04-.083.123-.255.349-.725.079-.163.51-1.058.725-1.5.328-.68,0-.009.031-.066,0-.009.012-.023.005-.012,0-.006,0-.006.094-.2.034-.07c5.274-10.943,11.837-24.562,16.2-33.077a90.856,90.856,0,0,0,6-15.467l0-.007,0-.005,0-.017,0-.012,0-.01a24.825,24.825,0,0,1,.865-2.617A3.353,3.353,0,0,1,208.621,151a10,10,0,0,1,4.635,1.4,5.534,5.534,0,0,1,2.486,3.194,1.975,1.975,0,0,1-.119,1.566c-.411.413-4.865,7.948-9.877,17.171-4.592,8.451-10.869,20.532-14.694,30.092,10.061-7.4,22.608-14.859,27.952-14.859.123,0,.237,0,.338.011,1.129.073,1.687.583,1.657,1.516a5.658,5.658,0,0,1-.927,2.5,18,18,0,0,1-2.085,2.78c-1.686,1.874-3.446,3.183-4.279,3.183a.73.73,0,0,1-.113-.008c-1.879,0-10.041,3.893-17.357,8.727.291,1,.548,2.082.756,2.954l0,.02.005.022.02.081,0,.018.007.03.007.03,0,.007a59.835,59.835,0,0,0,1.9,6.7,9.48,9.48,0,0,0,2.646,3.986,6.544,6.544,0,0,0,4.313,1.639,7.42,7.42,0,0,0,2.057-.3c2.8-.787,6.709-3.139,9.805-5.1a2.188,2.188,0,0,1,1.011-.363.539.539,0,0,1,.55.373c.44,1.165-1.313,4.872-5.167,8.264a25,25,0,0,1-6.143,4.6,10.426,10.426,0,0,1-4.791.949c-2.976,0-6.432-2.484-9.481-6.815-2.688-3.826-4.494-8.376-4.494-11.32-.154.155-.306.31-.626.651l-.039.041a11.986,11.986,0,0,1-2.6,2.256c-2.208,5.284-3.764,8.949-5.208,11.641C179.158,231.657,177.905,233,176.711,233Zm197.313-1c-1.57,0-2.938-.921-4.18-2.814-4.164-6.029-.274-20.244,1.816-27.881l.005-.02,0-.009,0-.01.006-.024.007-.027c.534-1.95.955-3.49,1.071-4.3a19.04,19.04,0,0,0,.123-3.55v-.02c-.066-1.856-.113-3.2,1.333-4.5l.06-.054c1.878-1.678,3.119-2.787,4.376-2.787a3.786,3.786,0,0,1,2.619,1.5,5.431,5.431,0,0,0,2.443,1.466c.931.338,1.734.629,2.077,1.63.376,1.087.15,2.952-.713,5.869-.511,1.774-1.023,3.5-1.5,5.108l-.007.025,0,.009,0,.011c-2.012,6.768-3.75,12.614-3.75,16.588,1.947-.627,5.652-3.114,12.234-11.4a151.087,151.087,0,0,0,9.379-13.252,1.271,1.271,0,0,1,1.045-.723c.706,0,1.531.894,1.531,3.412,0,2.569-2.322,9.824-5.823,14.9-6.141,9.031-14.473,15.589-20.381,19.5A7.285,7.285,0,0,1,374.025,232Zm164.127-1a9.459,9.459,0,0,1-1.056-.064c-.946-.113-1.919-1.132-2.738-2.868-1.272-2.7-1.919-6.743-.746-8.571.423-.712.812-1.287,1.224-1.895l.012-.018c1.332-1.966,2.71-4,5.284-10.76,1.717-4.371,3.329-8.6,4.624-12l.042-.11.008-.02.021-.054.007-.017c1.134-2.976,1.954-5.126,2.269-5.858A3.722,3.722,0,0,1,550.625,187a9.082,9.082,0,0,1,4.232,1.208,4.8,4.8,0,0,1,2.287,2.813,1.937,1.937,0,0,1-.151,1.56l-.125.163-.008.01c-4.208,5.436-7.874,14.616-10.209,21.361a126.622,126.622,0,0,0,11.526-10.159l.017-.016c5.839-5.556,11.355-10.8,14.262-10.8.053,0,.108,0,.162.005,2.271.158,3.917.987,4.758,2.4,1,1.677.833,4.106-.486,7.024a33.937,33.937,0,0,0-2.407,8.44c-.458,3.03-.369,5.313.243,6.263a.941.941,0,0,0,.806.492,1.192,1.192,0,0,0,.346-.056c3.023-.929,10.961-5.611,14.276-7.851a2.645,2.645,0,0,1,1.215-.433.551.551,0,0,1,.57.365c.235.616-.207,1.912-1.181,3.469a27.283,27.283,0,0,1-4.875,5.571l-.384.349-.158.144-.187.17-.1.09-.02.018a68.731,68.731,0,0,1-7.269,6.082,12.138,12.138,0,0,1-6.836,2.461,9.326,9.326,0,0,1-1.46-.117c-1.264-.2-2.317-1.193-3.13-2.947-2.405-5.188-2-15.913.769-20.492a.38.38,0,0,0-.192-.047c-1.392,0-6.013,5.447-10.9,11.213l-.008.009-.076.09c-2.2,2.588-4.467,5.265-6.469,7.464a42.693,42.693,0,0,1-6.94,6.22A7.679,7.679,0,0,1,538.151,231Zm-54.544,0a5.968,5.968,0,0,1-4.4-2.034,9.541,9.541,0,0,1-2.155-7.4,46.629,46.629,0,0,1,3.423-11.846c1.8-4.4,3.825-8.225,5.292-9.971C488.82,196,489.606,196,490.517,196c1.272,0,3.241,1.672,4.531,3.226,1.2,1.444,1.831,2.744,1.694,3.479-.1,1.535-.654,1.843-2.145,2.668-.274.151-.573.317-.911.513-.808.62-2.675,3.611-4.342,6.956-1.9,3.825-2.849,6.669-2.529,7.608a.48.48,0,0,0,.487.364.976.976,0,0,0,.273-.041c2.477-.685,13.26-6.553,19.9-10.33-.536.713-1.069,1.441-1.583,2.166a11.428,11.428,0,0,0-1.884,5.955c4.216-3.131,8.208-6.241,9.706-7.564,1.665-1.52,2.536-3.032,2.219-3.851a.916.916,0,0,0-.952-.522,5.574,5.574,0,0,0-2.624.964c-.956.593-2.69,1.606-4.881,2.851a74.66,74.66,0,0,1,6.053-7.153c2.5-2.544,4.564-4.009,6.12-4.356l1.251-.342a3.642,3.642,0,0,0-1.251-1.368c-.992-.807-1.444-1.437-1.307-1.821.092-.259.461-.4,1.04-.4a6.55,6.55,0,0,1,3.223.968c.129.105.295.236.479.378a30.1,30.1,0,0,1,6.1,6.07c2.585,3.628,3.392,7.325,2.4,10.989a19.731,19.731,0,0,1-7.6,10.415A20.014,20.014,0,0,1,512.637,228a11,11,0,0,1-2.308-.235c-4.918-.986-6.488-5.4-6.317-9.2-1.509,1.12-2.97,2.188-4.343,3.174-4.34,3.12-11.992,8.443-14.472,9.033A5.714,5.714,0,0,1,483.608,231ZM523,208c-3.28,2.684-7.63,7.479-7.991,8.581a.325.325,0,0,0,.055.278.561.561,0,0,0,.443.141c1.271,0,4.507-1.654,6.2-3.852.8-.935,1.292-2.908,1.292-5.148ZM288.152,231a9.042,9.042,0,0,1-1.056-.064c-.947-.113-1.92-1.132-2.739-2.869-1.272-2.7-1.919-6.742-.746-8.57.4-.68.792-1.256,1.134-1.764l.021-.03.016-.023.016-.023.019-.027.029-.043.024-.036.014-.02.011-.015.025-.038.005-.009c.38-.561.852-1.259,1.361-2.129-2.719,2.087-5.779,4.359-8.616,6.4-4.342,3.121-12,8.445-14.473,9.033a5.787,5.787,0,0,1-1.589.229,5.962,5.962,0,0,1-4.4-2.035,9.538,9.538,0,0,1-2.155-7.4,46.7,46.7,0,0,1,3.423-11.846c1.8-4.4,3.823-8.223,5.291-9.971C266.819,196,267.606,196,268.518,196c1.273,0,3.24,1.672,4.53,3.225,1.2,1.443,1.832,2.743,1.695,3.479-.1,1.535-.652,1.842-2.138,2.665l-.013.007-.029.016-.035.02-.005,0-.014.008c-.306.169-.544.3-.821.463-.808.62-2.675,3.61-4.342,6.956-1.9,3.822-2.85,6.666-2.53,7.608a.48.48,0,0,0,.487.364,1.072,1.072,0,0,0,.273-.041c3.127-.867,19.4-9.944,24.1-12.764a53,53,0,0,1-3.388,7.331c2.491-1.913,4.471-3.495,5.432-4.34,1.665-1.52,2.535-3.032,2.218-3.851a.915.915,0,0,0-.952-.522,5.516,5.516,0,0,0-2.623.964c-.188.118-.413.254-.687.418l.081-.208.018-.046.007-.02.031-.082.006-.016c.121-.309.224-.575.313-.812,1.758-4.477,3.518-9.091,4.463-11.57l.008-.023.019-.05,0-.008,0-.008.066-.172.1-.263,0-.008.005-.013.039-.1.041-.107.069-.181.009-.022.031-.081,0-.008.009-.023,0-.006.006-.015.094-.248,0-.01c.906-2.375,1.688-4.427,1.994-5.135A3.722,3.722,0,0,1,300.625,187a9.081,9.081,0,0,1,4.232,1.208,4.8,4.8,0,0,1,2.287,2.813,1.937,1.937,0,0,1-.151,1.56c-.013.017-.027.036-.043.056l-.011.014-.037.049-.038.049-.006.008c-4.21,5.442-7.874,14.618-10.207,21.358a126.069,126.069,0,0,0,11.5-10.136l.039-.037.006-.006c5.837-5.554,11.35-10.8,14.258-10.8.059,0,.113,0,.162.005,2.272.158,3.917.987,4.757,2.4,1,1.676.834,4.105-.486,7.024a33.981,33.981,0,0,0-2.408,8.44c-.458,3.036-.37,5.318.243,6.263a.94.94,0,0,0,.806.492,1.22,1.22,0,0,0,.346-.056c3.018-.925,10.959-5.609,14.277-7.851a2.638,2.638,0,0,1,1.215-.433.553.553,0,0,1,.57.365,2.681,2.681,0,0,1-.284,1.77c-.288.4-.529.731-.758,1.053a9.287,9.287,0,0,0-1.043,1.955c.341-.455.646-.9.9-1.309a11.479,11.479,0,0,0,.9-1.7c2.551-3.493,8.922-11.714,13-12.623l1.251-.342a3.611,3.611,0,0,0-1.251-1.368c-.991-.808-1.443-1.437-1.308-1.821.093-.259.462-.4,1.04-.4a6.579,6.579,0,0,1,3.223.968c.078.065.179.143.266.212l.066.053.04.031.048.037.014.012.037.029.007.005a29.99,29.99,0,0,1,6.1,6.07c2.585,3.628,3.392,7.325,2.4,10.989a19.728,19.728,0,0,1-7.6,10.415A20.008,20.008,0,0,1,347.638,228a11.072,11.072,0,0,1-2.308-.235,7.336,7.336,0,0,1-5.183-3.747A10.2,10.2,0,0,1,339,219.308a12.452,12.452,0,0,1,.852-4.745,29.662,29.662,0,0,1-3.972,4.262l-.231.211-.051.047-.014.013-.137.125-.018.016-.188.171-.137.124-.05.044-.008.007-.011.01-.011.01-.011.01-.01.009-.009.008a67.93,67.93,0,0,1-7.23,6.047,12.138,12.138,0,0,1-6.836,2.461,9.61,9.61,0,0,1-1.46-.117c-1.264-.2-2.317-1.193-3.13-2.947-2.4-5.192-2-15.917.77-20.492a.38.38,0,0,0-.192-.047c-1.393,0-6.013,5.447-10.9,11.213l-.012.013-.044.051,0,0-.013.015-.064.075-.049.059-.035.041c-2.037,2.4-4.344,5.121-6.331,7.3a42.779,42.779,0,0,1-6.941,6.22A7.639,7.639,0,0,1,288.152,231ZM358,208c-3.279,2.684-7.629,7.478-7.992,8.581a.329.329,0,0,0,.055.277.558.558,0,0,0,.443.142c1.271,0,4.506-1.654,6.2-3.852C357.5,212.21,358,210.237,358,208Zm241.587,22a4.383,4.383,0,0,1-1.726-.322c-1.532-.7-1.841-2.01-2.139-3.275-.077-.325-.149-.632-.242-.928-.088-.205-.208-.459-.336-.728-.573-1.208-1.44-3.033-1.042-3.957a.909.909,0,0,1,.584-.514A6.589,6.589,0,0,1,596.7,220a13.374,13.374,0,0,1,4.444.835,9.432,9.432,0,0,1,3.631,2.207c2.113,2.169,1.2,3.369-.567,5.088A6.858,6.858,0,0,1,599.587,230ZM271.378,191a2.582,2.582,0,0,1-2.6-1.366c-1.224-2.137-2.183-5.572-1.6-7.085a1.117,1.117,0,0,1,.686-.718,53.754,53.754,0,0,1,6.763-1.809,1.412,1.412,0,0,1,.249-.022c1.257,0,2.308,1.624,3.325,3.2l.01.017.005.008.012.019.016.025.009.015a16.2,16.2,0,0,0,1.3,1.831,1.529,1.529,0,0,1,.438,1.165c-.1.663-.859,1.189-1.743,1.8l-.007,0-.005,0-.036.025-.031.021-.008.005-.019.013-.018.013-.027.018c-.308.213-.692.478-1.067.779A10.571,10.571,0,0,1,271.378,191Zm-162,0a2.582,2.582,0,0,1-2.6-1.366c-1.224-2.137-2.183-5.572-1.6-7.085a1.117,1.117,0,0,1,.686-.718,54.081,54.081,0,0,1,6.763-1.809,1.414,1.414,0,0,1,.249-.022c1.258,0,2.308,1.622,3.323,3.19l.011.019.007.012.012.018.012.018,0,0,0,.005,0,.006a16.412,16.412,0,0,0,1.3,1.837,1.528,1.528,0,0,1,.438,1.165c-.1.666-.866,1.195-1.757,1.806l-.034.024-.03.021-.014.01,0,0-.014.01c-.318.219-.712.491-1.106.806A10.57,10.57,0,0,1,109.378,191Zm216.258-66a8.01,8.01,0,0,1-6.426-3.617,12.234,12.234,0,0,1-2.11-5.659,16.817,16.817,0,0,1,.894-7.433c1.554-4.655,6.9-10.422,14.663-15.822,6.288-4.375,17.154-10.583,33.212-15.312a105.537,105.537,0,0,0,3.4-11.727l0-.02,0-.006,0-.007,0-.008,0-.007,0-.013,0-.006,0-.007,0-.01,0-.012,0-.01.024-.1.011-.047.038-.159.042-.175.017-.073.039-.16,0-.006V64.6l.005-.022,0-.019c.04-.166.084-.345.13-.532l.011-.041,0-.013a.106.106,0,0,0,0-.019l0,0a.048.048,0,0,1,0-.012l.006-.026a.433.433,0,0,1,.012-.044l.006-.026,0-.014.005-.022,0-.005a3.538,3.538,0,0,0,.167-1.018,192.746,192.746,0,0,1-19.626,11.774,5.428,5.428,0,0,1-2.537.634,7.068,7.068,0,0,1-5.07-2.443c-3.129,2.5-7.814,6.03-11.936,8.992-4.341,3.12-11.993,8.444-14.473,9.034a5.372,5.372,0,0,1-1.588.229,5.969,5.969,0,0,1-4.405-2.034,9.54,9.54,0,0,1-2.155-7.4,46.6,46.6,0,0,1,3.424-11.846c1.8-4.406,3.824-8.227,5.291-9.971C319.82,56,320.606,56,321.517,56c1.272,0,3.241,1.672,4.531,3.226,1.2,1.452,1.831,2.753,1.694,3.479-.1,1.535-.654,1.844-2.147,2.67l-.013.007-.082.046-.061.034c-.216.12-.485.269-.753.425-.8.618-2.671,3.608-4.342,6.955-1.9,3.843-2.849,6.687-2.529,7.608a.48.48,0,0,0,.487.364.786.786,0,0,0,.273-.041c2.727-.753,15.761-7.906,22.292-11.7a5.949,5.949,0,0,0,1.74,3.673c.961-.768,1.672-1.355,2.112-1.746,1.665-1.52,2.535-3.032,2.218-3.851a.915.915,0,0,0-.952-.522,5.459,5.459,0,0,0-2.624.964c-.537.332-1.376.83-2.492,1.481a2.184,2.184,0,0,1,.042-.518c.313-1.815,3.434-4.688,6-6.779a85.217,85.217,0,0,1,8.977-6.354,10.135,10.135,0,0,1,5.36-1.42,19.69,19.69,0,0,1,4.316.563l.065.014.037.008h.005l.031.006.01,0h.011l.007,0,.024.005.026.005.015,0h.012c.154.033.411.088.631.126.939.187,1.448.573,1.473,1.115.039.805-1,1.734-1.7,1.942-3.068,1.244-10.12,6.707-9.929,7.691.022.107.125.161.309.161a3.8,3.8,0,0,0,1.111-.267c4.468-1.783,10.455-6.95,13.011-9.157l.148-.127c.266-1.32.611-2.019,1-2.019a.419.419,0,0,1,.248.094c.307.144.745.314.932.386l.007,0,.022.008.015.006.012,0,.032.013.017.006.01,0,.052.02.008,0,.011,0,.036.013.059.023.007,0,.009,0,.006,0,.008,0a15.922,15.922,0,0,1,3.874,1.921,4.128,4.128,0,0,1,1.916,3.8c-.336,1.787-1.791,7.395-3.971,14.265l4.652-1.019a7.713,7.713,0,0,1,.8-.05c.823,0,1.31.2,1.372.571.148.871-2.031,2.567-6.481,4.121a5.935,5.935,0,0,0-1.815.679c-2.783,7.73-5.528,15.08-8.509,20.039a51.519,51.519,0,0,1-19.9,19.189,65.74,65.74,0,0,1-18.109,6.623A7.257,7.257,0,0,1,325.636,125ZM364,83h0a162.092,162.092,0,0,0-24.353,12.89A47.09,47.09,0,0,0,327.4,107.569c-2.492,3.55-3.789,6.879-3.3,8.481a1.266,1.266,0,0,0,1.323.95,1.348,1.348,0,0,0,.177-.007c2.063-.156,7.819-1.706,14.485-5.2,5.412-2.841,12.775-7.728,17.118-14.872A97.768,97.768,0,0,0,364,83ZM255.617,99a.821.821,0,0,1-.136-.007c-1.285-.128-2.245-1.472-2.825-2.578-1.527-2.909-2.287-7.881-1.017-10.181.747-1.307,5.082-10.1,9.275-18.595l0-.007.1-.2.018-.037.076-.155.039-.079,0,0,0-.007.038-.076.009-.017.1-.2,0-.008.041-.085,0-.007.046-.093.049-.1.009-.018.059-.119.006-.013,0-.006.008-.016.017-.034.061-.124.007-.014.071-.143.005-.012.045-.092.053-.107.029-.058.052-.106.051-.1.029-.059.023-.048,0-.009.068-.137.1-.205.043-.088.067-.136.008-.016.017-.034,0-.005C269.222,50.8,277.858,33.3,280.789,27.976a172.589,172.589,0,0,0,9.829-20.1A2.706,2.706,0,0,1,293.234,6a8.2,8.2,0,0,1,3.825,1.313,5.524,5.524,0,0,1,2.493,3.189,1.942,1.942,0,0,1-.121,1.553c-.429.671-6.389,11.718-12.668,24.133-5.824,11.515-13.411,27.136-16.481,36.158A82.952,82.952,0,0,1,283.43,58.94a40.966,40.966,0,0,1,6.7-4.439,13.19,13.19,0,0,1,5.69-1.687,8.849,8.849,0,0,1,7.052,2.936c1.884,2.243,2.55,5.611,1.873,9.483a31.322,31.322,0,0,1-1.952,6.348,34.158,34.158,0,0,1-4.261,7.428,27.876,27.876,0,0,1-6.973,6.58A25.217,25.217,0,0,1,281.467,89.4a40.574,40.574,0,0,1-6.312.543,19.053,19.053,0,0,1-7.024-1.1c-1.454-.582-2.378-1.358-2.472-2.075-.927,1.334-1.841,2.7-2.624,3.873C259.914,95.311,257.448,99,255.617,99Zm10.319-13c-.623.221-.929.576-.862,1l.112-.132C265.4,86.621,265.607,86.378,265.936,86Zm24.115-21c-1.323,0-4.238,1.483-7.8,3.967a73.055,73.055,0,0,0-10.916,9.41A63.74,63.74,0,0,0,266,85a3.8,3.8,0,0,1,1.511-.246c.244,0,.478.011.695.032a10.238,10.238,0,0,0,1.14.067c5.352,0,10.725-4.2,13.451-6.7,3.792-3.48,7.068-7.889,7.967-10.722.367-1.157.3-1.954-.2-2.307A.934.934,0,0,0,290.051,65ZM11.658,98a3.476,3.476,0,0,1-.52-.025,3.849,3.849,0,0,1-2.851-1.769A9.738,9.738,0,0,1,6.62,91.229a23,23,0,0,1,1.143-8.542C11.271,72.2,31.361,32.5,36.444,22.78c1.3-2.408,2.733-5.26,4.387-8.72A312.8,312.8,0,0,0,5.4,19.723a1.359,1.359,0,0,1-1.3.975,3.758,3.758,0,0,1-2.544-1.528A6.523,6.523,0,0,1,.021,15.638a4.785,4.785,0,0,1,1.434-3.893c1.3-1.317,3.424-2.253,6.309-2.781,9-1.77,24.326-3,38.128-3.964C47.626,2.322,49.062.8,50.278.357a1.639,1.639,0,0,1,.484-.067C52.318.291,55.1,2,56.351,4.208c2.885-.22,5.166-.442,6.973-.68,9.447-.905,10.246-1.71,11.7-3.17A1.758,1.758,0,0,1,76.083,0a2.671,2.671,0,0,1,2.03,1.111c.526.675,1.305,2.21.619,4.909a7.56,7.56,0,0,1-1.645,3.1A7.777,7.777,0,0,1,73.924,11.1c-2.635.955-6.52,1.418-13.412,1.6-2.087,0-3.857.083-5.907.179l-.063,0-.075,0-.035,0-.529.023h-.013l-.352.015-.711,1.216,0,.006,0,.007-.009.015,0,.008-.01.018-.008.014,0,.008-.015.026-.019.032,0,.007-.021.035-.01.017,0,.007C46.405,25.12,34.668,45.176,26.321,62.529c-9.8,20.525-10.451,27.455-10.7,30.064V92.6l0,.022,0,.015,0,.019v.005l0,.017c-.029.341-.059.6-.091.762a5.781,5.781,0,0,1-.75,2.882A3.417,3.417,0,0,1,11.658,98ZM33.85,96h0c-.089,0-.181,0-.29-.015-1.29-.13-2.268-1.5-2.861-2.625a15.821,15.821,0,0,1-1.6-5.409,8.51,8.51,0,0,1,.521-4.78c.706-1.291,4.3-8.327,5.484-10.638l.018-.036.006-.012.011-.02.1-.189,0-.005.194-.378.006-.013.005-.01,0-.009.119-.232.078-.153.155-.3.01-.02.005-.01.163-.318.021-.04.048-.094.014-.026.008-.015.237-.465,0-.007.039-.075.006-.012.234-.458.112-.22.082-.16.184-.36.007-.014.133-.261,0,0,.062-.121.042-.083,0-.005.013-.025.013-.025.068-.132.038-.074.039-.076.007-.014.042-.083.088-.172.019-.037.124-.243c5.556-10.863,13.166-25.74,16.261-31.415a181.683,181.683,0,0,0,9.791-20.3A2.6,2.6,0,0,1,66.245,14a8.337,8.337,0,0,1,3.891,1.36,5.54,5.54,0,0,1,2.481,3.195,2,2,0,0,1-.118,1.568c-.441.636-6.2,10.726-12.52,22.666C54.222,53.65,46.7,68.509,43.575,77.614a59.713,59.713,0,0,1,7.294-7.141,91.843,91.843,0,0,1,8.693-6.458,67.03,67.03,0,0,1,8.259-4.678,16.6,16.6,0,0,1,5.994-1.8c.106,0,.193,0,.258.008,2.458.158,4.254,1.055,5.192,2.593,1.145,1.875.984,4.625-.465,7.952-2.115,4.5-3.216,7.3-2.588,8.291a.989.989,0,0,0,.914.407,4.117,4.117,0,0,0,1.111-.193c3.265-.907,11.992-6.167,15.755-8.732a2.86,2.86,0,0,1,1.358-.526.565.565,0,0,1,.579.373c.48,1.224-1.617,5.577-6.664,10.245l-.274.25c-.069.062-.138.124-.205.187l-.031.027-.013.013-.142.13-.094.086-.005,0,0,0,0,0,0,0-.007.006-.007.007-.008.007-.01.009-.009.009-.022.02-.01.009-.01.009-.022.019,0,0a75.192,75.192,0,0,1-8.072,6.754c-2.806,1.879-5.237,2.755-7.653,2.755a9.224,9.224,0,0,1-1.507-.111,5.809,5.809,0,0,1-4.426-3.525,13.743,13.743,0,0,1-1.036-6.951A17.939,17.939,0,0,1,68,70.243a1.065,1.065,0,0,0-.607-.144c-1.354,0-4.278,1.381-7.632,3.6a61.207,61.207,0,0,0-10.669,9.127l-.513.555C41.565,90.982,36.932,96,33.85,96Zm142.861-2a1.087,1.087,0,0,1-.2-.013,3.2,3.2,0,0,1-2.281-1.981,12.388,12.388,0,0,1-1.213-4.981,9.41,9.41,0,0,1,.789-4.712c.316-.555,1.08-2.073,2.4-4.779a32.3,32.3,0,0,1-2.328,2.291l-.2.184-.068.061-.141.129-.012.011-.013.012-.027.024-.051.047-.029.026-.246.223-.039.035-.006.006-.008.007-.008.007-.007.006-.007.007-.019.017-.009.008-.01.009-.01.009a68.015,68.015,0,0,1-7.2,6.024,12.138,12.138,0,0,1-6.836,2.461,10.325,10.325,0,0,1-1.46-.117c-1.264-.2-2.318-1.193-3.13-2.946-2.405-5.2-2-15.927.77-20.494a.38.38,0,0,0-.192-.047c-1.393,0-6.014,5.448-10.906,11.215L144,76.76l-.041.05-.095.112-.006.007-.01.012-.061.072-.006.007-.022.026-.026.031-.006.008-.007.009-.007.008-.007.009,0,.005-.078.093-.05.059,0,0c-2,2.362-4.074,4.8-6.108,7.038a43.017,43.017,0,0,1-6.942,6.221A7.679,7.679,0,0,1,126.15,92a10.363,10.363,0,0,1-1.054-.063c-.947-.113-1.92-1.132-2.738-2.868-1.272-2.7-1.92-6.74-.747-8.572.355-.6.688-1.1.931-1.463l.013-.019.015-.023.033-.049.017-.026.007-.011.008-.012.009-.013.022-.032.022-.031,0-.006.017-.025.015-.023.023-.035.035-.051.018-.026.019-.028.025-.037.007-.011,0,0,0,0,.007-.01,0,0,0,0,.007-.011,0-.006.01-.014a31.357,31.357,0,0,0,2.323-3.9c-2.889,2.237-6.37,4.831-9.548,7.117-4.341,3.121-11.993,8.444-14.473,9.034A5.285,5.285,0,0,1,99.609,91a5.966,5.966,0,0,1-4.4-2.035,9.545,9.545,0,0,1-2.156-7.4,46.538,46.538,0,0,1,3.424-11.846c1.8-4.4,3.823-8.225,5.291-9.971C104.819,56,105.606,56,106.518,56c1.272,0,3.24,1.672,4.531,3.225,1.2,1.449,1.831,2.75,1.694,3.479-.1,1.537-.653,1.844-2.142,2.667l-.022.012-.021.012-.057.032c-.234.13-.439.247-.617.348l-.055.031-.069.04-.073.041c-.8.615-2.67,3.605-4.342,6.955-1.9,3.822-2.85,6.666-2.53,7.608a.48.48,0,0,0,.487.364.747.747,0,0,0,.273-.041c3.145-.87,20.3-10.434,24.6-13.068l-.009.027-.037.094a73.725,73.725,0,0,1-2.912,6.8c2.067-1.6,3.665-2.884,4.5-3.621,1.665-1.52,2.535-3.032,2.218-3.851a.915.915,0,0,0-.952-.522,5.416,5.416,0,0,0-2.624.964l-.18.11c1.769-4.5,3.483-9,4.128-10.7l.023-.062.005-.014.005-.013.086-.228.056-.147.005-.015.014-.038,0-.01,0-.008.005-.013,0-.005.055-.145.006-.017.047-.122,0-.011.006-.016,0-.011.055-.145.009-.024,0-.013.041-.108.049-.128.1-.265.013-.035,0-.008.02-.053.023-.059.006-.016.032-.086.033-.087,0-.013.025-.066c.876-2.3,1.729-4.531,2.038-5.253A3.722,3.722,0,0,1,138.625,48a9.082,9.082,0,0,1,4.232,1.208,4.8,4.8,0,0,1,2.287,2.813,1.937,1.937,0,0,1-.151,1.561q-.052.07-.135.176c-4.208,5.44-7.873,14.617-10.207,21.357a124.408,124.408,0,0,0,11.422-10.06l.046-.043.02-.019.03-.029.024-.024c5.84-5.556,11.356-10.8,14.261-10.8.045,0,.1,0,.163.005,2.272.158,3.917.987,4.757,2.4,1,1.674.834,4.1-.486,7.024A33.964,33.964,0,0,0,162.482,72c-.458,3-.369,5.287.243,6.263a.941.941,0,0,0,.806.492,1.251,1.251,0,0,0,.347-.056c3.022-.927,10.961-5.61,14.277-7.851a2.638,2.638,0,0,1,1.215-.433.72.72,0,0,1,.267.046c-2.3,4.77-2.776,5.74-3.426,7.069a23.205,23.205,0,0,0,2.547-3.281c.975-1.556,1.416-2.852,1.182-3.468a.526.526,0,0,0-.3-.319l.264-.546c.385-.8.816-1.693,1.333-2.766l.018-.036.846-1.756.016-.034.09-.187,0-.005,0-.006,0-.005.064-.132.051-.105.024-.05.031-.064.044-.093.031-.064.011-.023,0-.005.054-.112,0-.005.032-.068,0-.007.008-.017.049-.1.005-.01.06-.125.076-.157.046-.1c5.112-10.6,11.473-23.79,15.685-32.01a90.124,90.124,0,0,0,5.972-15.389l0-.018.005-.017,0-.009,0-.012,0-.007,0-.005,0-.012,0-.007.006-.02.007-.023.007-.023.006-.02.018-.058,0-.015.007-.023,0-.011a22.609,22.609,0,0,1,.818-2.464A3.353,3.353,0,0,1,208.621,12a10.1,10.1,0,0,1,4.635,1.4,5.545,5.545,0,0,1,2.486,3.2,1.982,1.982,0,0,1-.119,1.565c-.4.4-4.846,7.929-9.877,17.172-4.591,8.448-10.867,20.526-14.694,30.092,10.072-7.4,22.622-14.858,27.952-14.858.126,0,.24,0,.338.011,1.129.073,1.687.583,1.657,1.516a5.7,5.7,0,0,1-.927,2.5,18.835,18.835,0,0,1-2.085,2.779c-1.684,1.874-3.444,3.183-4.279,3.183a.733.733,0,0,1-.113-.008c-1.862,0-10.02,3.893-17.357,8.727.256.88.5,1.883.676,2.614l0,.009.011.046.005.023.006.027,0,.006,0,.019,0,.019.019.079.008.035v.005l.013.051,0,.014.01.043,0,.019.013.056,0,.011,0,.012.01.044,0,.012,0,.007,0,.007,0,.007a60.362,60.362,0,0,0,1.9,6.694,9.5,9.5,0,0,0,2.646,3.986,6.543,6.543,0,0,0,4.312,1.64,7.829,7.829,0,0,0,2.058-.3c2.794-.786,6.708-3.139,9.805-5.1A2.3,2.3,0,0,1,218.775,79a.539.539,0,0,1,.55.373c.44,1.165-1.313,4.873-5.167,8.265a24.907,24.907,0,0,1-6.143,4.6,10.4,10.4,0,0,1-4.79.949c-2.977,0-6.432-2.484-9.481-6.815-2.688-3.819-4.495-8.368-4.495-11.319-.2.205-.355.362-.6.621l-.008.009-.032.033-.028.03a11.972,11.972,0,0,1-2.6,2.254c-2.212,5.292-3.769,8.962-5.208,11.642C179.158,92.657,177.905,94,176.711,94Zm218.876-3a4.279,4.279,0,0,1-1.726-.322c-1.531-.7-1.84-2-2.138-3.264l0-.017,0-.008-.006-.026,0-.02,0-.008c-.062-.264-.136-.57-.226-.86-.105-.241-.212-.472-.336-.727l0-.005c-.572-1.207-1.437-3.03-1.039-3.952a.9.9,0,0,1,.584-.514A6.422,6.422,0,0,1,392.705,81a13.235,13.235,0,0,1,4.443.834,9.437,9.437,0,0,1,3.631,2.207c2.113,2.169,1.2,3.37-.567,5.089A6.858,6.858,0,0,1,395.588,91ZM325.377,51a2.581,2.581,0,0,1-2.6-1.366c-1.224-2.136-2.183-5.572-1.6-7.086a1.116,1.116,0,0,1,.686-.717,54.5,54.5,0,0,1,6.763-1.809,1.274,1.274,0,0,1,.249-.022c1.258,0,2.309,1.625,3.326,3.2l.007.014.013.019.013.019.008.013.008.013.005.008.012.019.006.009a16.019,16.019,0,0,0,1.281,1.8,1.528,1.528,0,0,1,.438,1.164c-.1.66-.855,1.186-1.735,1.794l-.009.006-.011.006,0,0-.007.005-.007.005-.022.015c-.374.257-.772.534-1.165.846A10.6,10.6,0,0,1,325.377,51Zm-216,0a2.581,2.581,0,0,1-2.6-1.366c-1.224-2.137-2.183-5.572-1.6-7.086a1.116,1.116,0,0,1,.686-.717,55.1,55.1,0,0,1,6.763-1.809,1.327,1.327,0,0,1,.249-.022c1.258,0,2.312,1.63,3.331,3.207l.011.016.005.009.005.008.012.018.008.012.007.011.005.008,0,0,.015.023.013.02a15.767,15.767,0,0,0,1.263,1.773,1.527,1.527,0,0,1,.438,1.164c-.1.667-.857,1.19-1.737,1.794l-.018.011-.007.005-.027.019c-.454.314-.8.558-1.171.851A10.591,10.591,0,0,1,109.377,51Z" transform="translate(0)" fill="#fff"/>
</svg>
